<svg width="22" height="22" viewBox="0 0 22 22" fill="none" xmlns="http://www.w3.org/2000/svg">
<rect x="2.52588" y="14.5467" width="17" height="4.58825" transform="rotate(-45 2.52588 14.5467)" stroke="white" stroke-width="2" stroke-linejoin="round"/>
<path d="M17.4375 6.83097L18.1446 6.12386L20.3203 8.29957L20.3203 9.75331L17.4375 6.83097Z" stroke="white" stroke-width="2"/>
<path d="M14.2337 10.5531L13.5266 11.2603L15.7023 13.436L17.1523 13.4214L14.2337 10.5531Z" stroke="white" stroke-width="2"/>
<rect x="5.06299" y="14.2556" width="14" height="2" transform="rotate(-45 5.06299 14.2556)" fill="#191818"/>
<rect x="13.5483" y="7.18451" width="1" height="1" transform="rotate(-45 13.5483 7.18451)" fill="white"/>
<rect x="7.18433" y="13.5485" width="1" height="1" transform="rotate(-45 7.18433 13.5485)" fill="white"/>
<rect x="9.30566" y="11.4271" width="1" height="1" transform="rotate(-45 9.30566 11.4271)" fill="white"/>
<rect x="11.427" y="9.30585" width="1" height="1" transform="rotate(-45 11.427 9.30585)" fill="white"/>
<path d="M12.0359 0.528017L11.8589 4.1965L13.7816 2.27374L12.0359 0.528017Z" fill="white"/>
<path d="M6.52686 5.49396L10.3993 5.43454L8.43335 7.40045L6.52686 5.49396Z" fill="white"/>
<rect x="13.6541" y="4.47467" width="1.8906" height="3.59544" transform="rotate(-45 13.6541 4.47467)" fill="white"/>
</svg>
